<?xml version="1.0" encoding="UTF-8"?>
<!DOCTYPE svg PUBLIC "-//W3C//DTD SVG 1.1//EN" "http://www.w3.org/Graphics/SVG/1.1/DTD/svg11.dtd">
<svg version="1.1" xmlns="http://www.w3.org/2000/svg" xmlns:xlink="http://www.w3.org/1999/xlink" x="0" y="0" width="148.059" height="154.895" viewBox="0, 0, 74.03, 77.448">
  <g id="Layer_1" transform="translate(-183.5, -71)">
    <path d="M218.576,91.5 L214.539,95.5 L187.192,95.515 L187.192,126.088 C187.192,130.133 191.102,134.561 197.732,138.762 C200.167,140.304 202.786,141.703 205.406,142.927 C206.323,143.356 207.175,143.732 207.937,144.052 L208.231,144.174 L208.466,144.07 C209.176,143.751 209.969,143.376 210.824,142.948 C213.267,141.726 215.708,140.332 217.977,138.793 C224.168,134.594 227.812,130.177 227.812,126.088 L227.812,108.125 L231.505,104 L231.505,126.088 C231.505,131.999 227.122,137.31 219.936,142.184 C217.522,143.82 214.947,145.292 212.372,146.579 C211.472,147.03 210.634,147.426 209.881,147.764 C209.616,147.884 209.379,147.987 209.174,148.075 C209.059,148.124 209.059,148.124 208.982,148.157 C208.951,148.17 208.951,148.17 208.93,148.178 C208.922,148.182 208.922,148.182 208.916,148.184 C208.913,148.186 208.913,148.186 208.911,148.186 C208.911,148.187 208.911,148.187 208.91,148.187 C208.91,148.187 208.91,148.187 208.909,148.187 L208.909,148.187 L208.275,148.448 L207.637,148.202 L207.636,148.202 C207.636,148.202 207.636,148.202 207.636,148.202 L207.634,148.201 C207.632,148.201 207.632,148.201 207.63,148.2 C207.624,148.197 207.624,148.197 207.615,148.194 C207.592,148.185 207.592,148.185 207.56,148.172 C207.478,148.14 207.478,148.14 207.356,148.092 C207.138,148.004 206.885,147.901 206.602,147.782 C205.799,147.444 204.905,147.049 203.943,146.6 C201.195,145.315 198.445,143.847 195.868,142.215 C188.181,137.344 183.5,132.043 183.5,126.088 L183.5,91.517 L185.345,91.516 L218.576,91.5 z" fill="#000000"/>
    <g>
      <path d="M200.02,123.907 C195.331,119.223 195.326,111.625 200.01,106.936 C203.799,103.303 209.998,102.095 214.558,105.106 L243.122,76.5 L247.373,80.75 L244.544,83.579 L253.03,92.064 L250.201,94.893 L241.716,86.407 L238.887,89.236 L247.373,97.721 L244.544,100.549 L236.059,92.064 L218.803,109.346 C221.876,114.003 220.524,119.983 216.99,123.897 C212.307,128.586 204.709,128.59 200.02,123.907 L200.02,123.907 z" fill-opacity="0" stroke="#32D187" stroke-width="2"/>
      <path d="M211.327,112.587 C212.89,114.148 212.891,116.68 211.33,118.243 C209.769,119.806 207.236,119.808 205.673,118.247 C204.11,116.686 204.109,114.153 205.67,112.59 C207.231,111.027 209.764,111.025 211.327,112.587 z" fill-opacity="0" stroke="#32D187" stroke-width="2"/>
    </g>
  </g>
</svg>
